REM DIRINDEX 1\2,1\3,1\4,1\5
REM DIRNAME cjc004,folder01,folder02,folder03,folder04
TITLE ""
FILE "1Q_t_0979-0988.mp3" MP3
  TRACK 01 AUDIO
    TITLE "3:cjc004_3841"
    INDEX 01 00:00:00
  TRACK 02 AUDIO
    TITLE "0:"
    INDEX 01 00:01:01
  TRACK 03 AUDIO
    TITLE "4:cjc004_3842"
    INDEX 01 00:01:28
  TRACK 04 AUDIO
    TITLE "0:"
    INDEX 01 00:02:51
  TRACK 05 AUDIO
    TITLE "5:cjc004_3843"
    INDEX 01 00:03:04
  TRACK 06 AUDIO
    TITLE "0:"
    INDEX 01 00:07:25
  TRACK 07 AUDIO
    TITLE "3:cjc004_3844"
    INDEX 01 00:08:03
  TRACK 08 AUDIO
    TITLE "0:"
    INDEX 01 00:09:14
  TRACK 09 AUDIO
    TITLE "4:cjc004_3845"
    INDEX 01 00:09:40
  TRACK 10 AUDIO
    TITLE "0:"
    INDEX 01 00:10:47
  TRACK 11 AUDIO
    TITLE "5:cjc004_3846"
    INDEX 01 00:10:74
  TRACK 12 AUDIO
    TITLE "0:"
    INDEX 01 00:16:24
  TRACK 13 AUDIO
    TITLE "3:cjc004_3847"
    INDEX 01 00:17:00
  TRACK 14 AUDIO
    TITLE "0:"
    INDEX 01 00:18:23
  TRACK 15 AUDIO
    TITLE "4:cjc004_3848"
    INDEX 01 00:18:52
  TRACK 16 AUDIO
    TITLE "0:"
    INDEX 01 00:19:60
  TRACK 17 AUDIO
    TITLE "5:cjc004_3849"
    INDEX 01 00:20:18
  TRACK 18 AUDIO
    TITLE "0:"
    INDEX 01 00:24:57
  TRACK 19 AUDIO
    TITLE "3:cjc004_3850"
    INDEX 01 00:25:39
  TRACK 20 AUDIO
    TITLE "0:"
    INDEX 01 00:26:60
  TRACK 21 AUDIO
    TITLE "4:cjc004_3851"
    INDEX 01 00:27:08
  TRACK 22 AUDIO
    TITLE "0:"
    INDEX 01 00:28:19
  TRACK 23 AUDIO
    TITLE "5:cjc004_3852"
    INDEX 01 00:28:43
  TRACK 24 AUDIO
    TITLE "0:"
    INDEX 01 00:32:45
  TRACK 25 AUDIO
    TITLE "3:cjc004_3853"
    INDEX 01 00:33:21
  TRACK 26 AUDIO
    TITLE "0:"
    INDEX 01 00:34:34
  TRACK 27 AUDIO
    TITLE "4:cjc004_3854"
    INDEX 01 00:34:61
  TRACK 28 AUDIO
    TITLE "0:"
    INDEX 01 00:35:64
  TRACK 29 AUDIO
    TITLE "5:cjc004_3855"
    INDEX 01 00:36:13
  TRACK 30 AUDIO
    TITLE "0:"
    INDEX 01 00:41:73
  TRACK 31 AUDIO
    TITLE "3:cjc004_3856"
    INDEX 01 00:42:53
  TRACK 32 AUDIO
    TITLE "0:"
    INDEX 01 00:43:62
  TRACK 33 AUDIO
    TITLE "4:cjc004_3857"
    INDEX 01 00:44:12
  TRACK 34 AUDIO
    TITLE "0:"
    INDEX 01 00:45:28
  TRACK 35 AUDIO
    TITLE "5:cjc004_3858"
    INDEX 01 00:45:59
  TRACK 36 AUDIO
    TITLE "0:"
    INDEX 01 00:50:42
  TRACK 37 AUDIO
    TITLE "3:cjc004_3859"
    INDEX 01 00:51:20
  TRACK 38 AUDIO
    TITLE "0:"
    INDEX 01 00:52:45
  TRACK 39 AUDIO
    TITLE "4:cjc004_3860"
    INDEX 01 00:53:02
  TRACK 40 AUDIO
    TITLE "0:"
    INDEX 01 00:54:07
  TRACK 41 AUDIO
    TITLE "5:cjc004_3861"
    INDEX 01 00:54:32
  TRACK 42 AUDIO
    TITLE "0:"
    INDEX 01 00:58:13
  TRACK 43 AUDIO
    TITLE "3:cjc004_3862"
    INDEX 01 00:58:62
  TRACK 44 AUDIO
    TITLE "0:"
    INDEX 01 01:00:06
  TRACK 45 AUDIO
    TITLE "4:cjc004_3863"
    INDEX 01 01:00:33
  TRACK 46 AUDIO
    TITLE "0:"
    INDEX 01 01:01:38
  TRACK 47 AUDIO
    TITLE "5:cjc004_3864"
    INDEX 01 01:01:64
  TRACK 48 AUDIO
    TITLE "0:"
    INDEX 01 01:06:57
  TRACK 49 AUDIO
    TITLE "3:cjc004_3865"
    INDEX 01 01:07:37
  TRACK 50 AUDIO
    TITLE "0:"
    INDEX 01 01:08:58
  TRACK 51 AUDIO
    TITLE "4:cjc004_3866"
    INDEX 01 01:09:09
  TRACK 52 AUDIO
    TITLE "0:"
    INDEX 01 01:10:18
  TRACK 53 AUDIO
    TITLE "5:cjc004_3867"
    INDEX 01 01:10:39
  TRACK 54 AUDIO
    TITLE "0:"
    INDEX 01 01:15:07
  TRACK 55 AUDIO
    TITLE "3:cjc004_3868"
    INDEX 01 01:15:58
  TRACK 56 AUDIO
    TITLE "0:"
    INDEX 01 01:17:08
  TRACK 57 AUDIO
    TITLE "4:cjc004_3869"
    INDEX 01 01:17:32
  TRACK 58 AUDIO
    TITLE "0:"
    INDEX 01 01:18:49
  TRACK 59 AUDIO
    TITLE "5:cjc004_3870"
    INDEX 01 01:18:72
  TRACK 60 AUDIO
    TITLE "0:"
    INDEX 01 01:23:20
